<svg width="12" height="7" viewBox="0 0 12 7" fill="none" xmlns="http://www.w3.org/2000/svg">
<path d="M1.7169 6.22372C1.66713 6.2739 1.59938 6.30212 1.52871 6.30212C1.45803 6.30212 1.39028 6.2739 1.34051 6.22372L0.778567 5.66178C0.727315 5.61368 0.698242 5.54652 0.698242 5.47623C0.698242 5.40594 0.727315 5.33878 0.778567 5.29068L5.6505 0.418753C5.72499 0.344167 5.82605 0.302217 5.93147 0.302124L6.0693 0.302124C6.17472 0.302217 6.27578 0.344167 6.35027 0.418753L11.2222 5.29068C11.2735 5.33878 11.3025 5.40594 11.3025 5.47623C11.3025 5.54652 11.2735 5.61367 11.2222 5.66178L10.6603 6.22372C10.6105 6.2739 10.5427 6.30212 10.4721 6.30212C10.4014 6.30212 10.3336 6.2739 10.2839 6.22372L6.00038 1.94024L1.7169 6.22372Z" fill="#474747"/>
</svg>
