<svg width="6" height="11" viewBox="0 0 6 11" fill="none" xmlns="http://www.w3.org/2000/svg">
<path d="M5.92159 9.5858C5.97177 9.63557 6 9.70332 6 9.774C6 9.84467 5.97177 9.91242 5.92159 9.96219L5.35965 10.5241C5.31155 10.5754 5.24439 10.6045 5.17411 10.6045C5.10382 10.6045 5.03666 10.5754 4.98856 10.5241L0.11663 5.65221C0.0420436 5.57771 9.34315e-05 5.47665 4.57503e-07 5.37124L4.69553e-07 5.2334C9.3462e-05 5.12799 0.0420437 5.02692 0.11663 4.95243L4.98856 0.0805005C5.03666 0.0292491 5.10382 0.000176351 5.17411 0.000176358C5.24439 0.000176364 5.31155 0.0292491 5.35965 0.0805005L5.92159 0.642443C5.97178 0.692213 6 0.759964 6 0.830641C6 0.901318 5.97178 0.969068 5.92159 1.01884L1.63811 5.30232L5.92159 9.5858Z" fill="#474747"/>
</svg>
