<svg width="11" height="6" viewBox="0 0 11 6" fill="none" xmlns="http://www.w3.org/2000/svg">
<path d="M9.58583 0.0784063C9.6356 0.0282258 9.70335 1.0746e-08 9.77403 9.90319e-09C9.8447 9.06038e-09 9.91245 0.0282258 9.96223 0.0784063L10.5242 0.640348C10.5754 0.688449 10.6045 0.755607 10.6045 0.825895C10.6045 0.896183 10.5754 0.963341 10.5242 1.01144L5.65224 5.88337C5.57775 5.95796 5.47668 5.99991 5.37127 6L5.23343 6C5.12802 5.99991 5.02695 5.95796 4.95246 5.88337L0.0805311 1.01144C0.0292797 0.963341 0.000206958 0.896183 0.000206957 0.825895C0.000206956 0.755607 0.0292797 0.688449 0.0805311 0.640348L0.642473 0.0784065C0.692244 0.0282259 0.759995 1.17394e-07 0.830671 1.16552e-07C0.901348 1.15709e-07 0.969098 0.0282259 1.01887 0.0784064L5.30235 4.36189L9.58583 0.0784063Z" fill="#777777"/>
</svg>
