<svg width="6" height="11" viewBox="0 0 6 11" fill="none" xmlns="http://www.w3.org/2000/svg">
<path d="M0.0784062 1.41441C0.0282257 1.36464 -1.57561e-07 1.29689 -1.45203e-07 1.22622C-1.32845e-07 1.15554 0.0282257 1.08779 0.0784062 1.03802L0.640348 0.476077C0.688449 0.424825 0.755607 0.395752 0.825895 0.395752C0.896183 0.395752 0.963341 0.424825 1.01144 0.476077L5.88337 5.34801C5.95796 5.4225 5.99991 5.52356 6 5.62898L6 5.76681C5.99991 5.87223 5.95796 5.97329 5.88337 6.04778L1.01144 10.9197C0.963339 10.971 0.896181 11 0.825893 11C0.755605 11 0.688447 10.971 0.640346 10.9197L0.0784046 10.3578C0.0282241 10.308 -1.72127e-06 10.2402 -1.70891e-06 10.1696C-1.69655e-06 10.0989 0.0282241 10.0311 0.0784047 9.98138L4.36189 5.6979L0.0784062 1.41441Z" fill="#474747"/>
</svg>
