<svg width="20" height="17" viewBox="0 0 20 17" fill="none" xmlns="http://www.w3.org/2000/svg">
<path d="M19.9698 2.46378C19.4537 3.15213 18.83 3.75258 18.1226 4.24195C18.1226 4.42177 18.1226 4.60158 18.1226 4.79139C18.1282 8.0568 16.8239 11.1879 14.5019 13.4828C12.18 15.7777 9.03469 17.0443 5.77114 16.9988C3.8844 17.0051 2.02183 16.5743 0.329325 15.7401C0.238065 15.7003 0.179203 15.61 0.17955 15.5103V15.4005C0.17955 15.257 0.295781 15.1407 0.43916 15.1407C2.29377 15.0796 4.08222 14.4366 5.55147 13.3026C3.87279 13.2688 2.3624 12.2744 1.66731 10.7453C1.6322 10.6617 1.64313 10.5659 1.69616 10.4925C1.74918 10.419 1.83663 10.3785 1.92692 10.3856C2.43711 10.4369 2.9524 10.3894 3.44464 10.2458C1.59151 9.86109 0.199097 8.32265 -0.000179413 6.43969C-0.00726198 6.34936 0.0332177 6.26187 0.106636 6.20882C0.180054 6.15577 0.275798 6.14483 0.35928 6.17996C0.856578 6.39939 1.39341 6.51496 1.93691 6.51961C0.31313 5.45384 -0.388234 3.42672 0.229475 1.58469C0.293237 1.4057 0.446425 1.27347 0.632746 1.2366C0.819067 1.19972 1.01104 1.26365 1.13811 1.40487C3.32929 3.73695 6.34002 5.12662 9.53547 5.28088C9.45362 4.95427 9.41336 4.61862 9.41565 4.28191C9.44554 2.51636 10.538 0.943567 12.1815 0.299861C13.825 -0.343846 15.6943 0.0689272 16.9144 1.34494C17.746 1.18651 18.55 0.907164 19.3008 0.515789C19.3558 0.481454 19.4255 0.481454 19.4805 0.515789C19.5148 0.57081 19.5148 0.640583 19.4805 0.695604C19.1169 1.52835 18.5025 2.2268 17.7232 2.69355C18.4056 2.6144 19.0761 2.45341 19.7201 2.21404C19.7744 2.17713 19.8456 2.17713 19.8999 2.21404C19.9453 2.23482 19.9793 2.27457 19.9927 2.32269C20.0062 2.37081 19.9978 2.42242 19.9698 2.46378Z" fill="#474747"/>
</svg>
